<?xml version="1.0" encoding="utf-8"?>
<!-- Generator: Adobe Illustrator 17.0.0, SVG Export Plug-In . SVG Version: 6.00 Build 0)  -->
<!DOCTYPE svg PUBLIC "-//W3C//DTD SVG 1.1//EN" "http://www.w3.org/Graphics/SVG/1.1/DTD/svg11.dtd">
<svg version="1.1" id="Layer_1" xmlns="http://www.w3.org/2000/svg" xmlns:xlink="http://www.w3.org/1999/xlink" x="0px" y="0px"
	 width="61px" height="61px" viewBox="0 0 61 61" enable-background="new 0 0 61 61" xml:space="preserve">
<g id="Layer_3" display="none">
	<rect x="1" y="1" display="inline" width="330" height="330"/>
</g>
<g id="Layer_2">
	
		<line fill="none" stroke="#FFFFFF" stroke-width="4" stroke-linecap="round" stroke-miterlimit="10" x1="30.083" y1="18.083" x2="30.083" y2="43.083"/>
	
		<line fill="none" stroke="#FFFFFF" stroke-width="4" stroke-linecap="round" stroke-miterlimit="10" x1="30.5" y1="43.364" x2="19.891" y2="32.755"/>
	
		<line fill="none" stroke="#FFFFFF" stroke-width="4" stroke-linecap="round" stroke-miterlimit="10" x1="30.5" y1="43.364" x2="41.108" y2="32.755"/>
	<g>
		<path fill="#FFFFFF" d="M30.5,4.5c14.336,0,26,11.664,26,26s-11.664,26-26,26s-26-11.664-26-26S16.163,4.5,30.5,4.5 M30.5,0.5
			c-16.569,0-30,13.431-30,30s13.431,30,30,30s30-13.431,30-30S47.068,0.5,30.5,0.5L30.5,0.5z"/>
	</g>
</g>
</svg>
