<?xml version="1.0" encoding="utf-8"?>
<!-- Generator: Adobe Illustrator 17.0.0, SVG Export Plug-In . SVG Version: 6.00 Build 0)  -->
<!DOCTYPE svg PUBLIC "-//W3C//DTD SVG 1.1//EN" "http://www.w3.org/Graphics/SVG/1.1/DTD/svg11.dtd">
<svg version="1.1" id="Layer_1" xmlns="http://www.w3.org/2000/svg" xmlns:xlink="http://www.w3.org/1999/xlink" x="0px" y="0px"
	 width="812px" height="326px" viewBox="0 0 812 326" enable-background="new 0 0 812 326" xml:space="preserve">
<g enable-background="new    ">
	<path fill="#4D4D4D" d="M123.627,73.828v14.068L93.625,159.96h30.003v14.356H77.403v-14.069l30.003-72.064H78.838V73.828H123.627z"
		/>
	<path fill="#4D4D4D" d="M184.062,174.316h-15.935l-2.728-18.232h-19.38l-2.728,18.232h-14.499l16.078-100.489h23.112
		L184.062,174.316z M148.03,142.447h15.217l-7.608-50.818L148.03,142.447z"/>
	<path fill="#4D4D4D" d="M237.034,136.848v13.351c0,16.079-8.039,25.266-23.543,25.266s-23.543-9.188-23.543-25.266V97.945
		c0-16.078,8.039-25.266,23.543-25.266s23.543,9.188,23.543,25.266v9.762h-14.93V96.94c0-7.178-3.158-9.905-8.183-9.905
		s-8.183,2.728-8.183,9.905v54.264c0,7.178,3.158,9.762,8.183,9.762s8.183-2.584,8.183-9.762v-14.355H237.034z"/>
	<path fill="#4D4D4D" d="M262.441,174.316H246.65V73.828h15.791v43.066h17.944V73.828h16.078v100.489h-16.078V131.25h-17.944
		V174.316z"/>
	<path fill="#4D4D4D" d="M375.99,136.848v13.351c0,16.079-8.039,25.266-23.543,25.266s-23.543-9.188-23.543-25.266V97.945
		c0-16.078,8.039-25.266,23.543-25.266s23.543,9.188,23.543,25.266v9.762h-14.93V96.94c0-7.178-3.158-9.905-8.183-9.905
		s-8.183,2.728-8.183,9.905v54.264c0,7.178,3.158,9.762,8.183,9.762s8.183-2.584,8.183-9.762v-14.355H375.99z"/>
	<path fill="#4D4D4D" d="M384.313,97.945c0-16.078,8.47-25.266,23.973-25.266c15.504,0,23.974,9.188,23.974,25.266v52.254
		c0,16.079-8.47,25.266-23.974,25.266c-15.503,0-23.973-9.188-23.973-25.266V97.945z M400.104,151.204
		c0,7.178,3.158,9.905,8.182,9.905c5.024,0,8.183-2.728,8.183-9.905V96.94c0-7.178-3.158-9.905-8.183-9.905
		c-5.024,0-8.182,2.728-8.182,9.905V151.204z"/>
	<path fill="#4D4D4D" d="M463.696,72.679c15.36,0,23.256,9.188,23.256,25.266v3.158h-14.93V96.94c0-7.178-2.871-9.905-7.896-9.905
		s-7.896,2.728-7.896,9.905c0,20.672,30.864,24.548,30.864,53.259c0,16.079-8.039,25.266-23.543,25.266s-23.543-9.188-23.543-25.266
		v-6.173h14.93v7.178c0,7.178,3.158,9.762,8.183,9.762s8.183-2.584,8.183-9.762c0-20.672-30.864-24.548-30.864-53.259
		C440.44,81.867,448.336,72.679,463.696,72.679z"/>
	<path fill="#4D4D4D" d="M517.385,72.679c15.36,0,23.256,9.188,23.256,25.266v3.158h-14.93V96.94c0-7.178-2.871-9.905-7.896-9.905
		s-7.896,2.728-7.896,9.905c0,20.672,30.864,24.548,30.864,53.259c0,16.079-8.039,25.266-23.543,25.266s-23.543-9.188-23.543-25.266
		v-6.173h14.93v7.178c0,7.178,3.158,9.762,8.183,9.762s8.183-2.584,8.183-9.762c0-20.672-30.864-24.548-30.864-53.259
		C494.129,81.867,502.024,72.679,517.385,72.679z"/>
	<path fill="#4D4D4D" d="M583.274,145.174l10.767-71.347h21.964v100.489h-14.93v-72.065l-10.91,72.065h-14.93l-11.771-71.06v71.06
		h-13.781V73.828h21.964L583.274,145.174z"/>
	<path fill="#4D4D4D" d="M678.592,174.316h-15.935l-2.728-18.232h-19.38l-2.728,18.232h-14.499l16.078-100.489h23.112
		L678.592,174.316z M642.56,142.447h15.217l-7.608-50.818L642.56,142.447z"/>
	<path fill="#4D4D4D" d="M699.98,101.534v72.783h-14.212V73.828h19.811l16.222,60.149V73.828h14.068v100.489h-16.222L699.98,101.534
		z"/>
</g>
<g enable-background="new    ">
	<path fill="#4D4D4D" d="M92.667,197.364c10.336,0,14.834,6.795,14.834,16.652v33.688c0,9.857-4.498,16.652-14.834,16.652H77.929
		v-66.992H92.667z M92.571,260.337c7.465,0,10.527-5.072,10.527-12.441v-34.07c0-7.369-3.158-12.441-10.527-12.441h-10.24v58.953
		H92.571z"/>
	<path fill="#4D4D4D" d="M209.423,228.372v4.02h-18.279v27.945h22.012v4.02h-26.414v-66.992h26.414v4.02h-22.012v26.988H209.423z"/>
	<path fill="#4D4D4D" d="M320.532,213.538v1.436h-4.211v-1.723c0-7.082-2.68-12.441-9.953-12.441s-9.953,5.264-9.953,12.346
		c0,16.27,24.213,16.557,24.213,35.027c0,9.666-4.211,16.748-14.451,16.748s-14.451-7.082-14.451-16.748v-3.445h4.211v3.732
		c0,7.178,2.775,12.346,10.145,12.346s10.145-5.168,10.145-12.346c0-16.078-24.213-16.365-24.213-35.027
		c0-10.049,4.402-16.557,14.26-16.652C316.417,196.79,320.532,203.872,320.532,213.538z"/>
	<path fill="#4D4D4D" d="M404.08,197.364v66.992h-4.402v-66.992H404.08z"/>
	<path fill="#4D4D4D" d="M512.318,213.729v4.977h-4.211v-5.264c0-7.178-2.775-12.633-10.145-12.633s-10.145,5.455-10.145,12.633
		v34.836c0,7.178,2.775,12.537,10.145,12.537s10.145-5.359,10.145-12.537v-14.451h-8.9v-4.02h13.111v18.184
		c0,9.666-4.211,16.939-14.451,16.939s-14.451-7.273-14.451-16.939v-34.262c0-9.666,4.211-16.939,14.451-16.939
		S512.318,204.063,512.318,213.729z"/>
	<path fill="#4D4D4D" d="M595.673,264.356h-4.02v-66.992h5.742l20.098,56.561v-56.561h4.02v66.992h-4.881l-20.959-59.719V264.356z"
		/>
</g>
<g enable-background="new    ">
	<path fill="#4D4D4D" d="M739.608,213.538v1.436h-4.211v-1.723c0-7.082-2.68-12.441-9.953-12.441s-9.953,5.264-9.953,12.346
		c0,16.27,24.213,16.557,24.213,35.027c0,9.666-4.211,16.748-14.451,16.748s-14.451-7.082-14.451-16.748v-3.445h4.211v3.732
		c0,7.178,2.775,12.346,10.145,12.346s10.145-5.168,10.145-12.346c0-16.078-24.213-16.365-24.213-35.027
		c0-10.049,4.402-16.557,14.26-16.652C735.493,196.79,739.608,203.872,739.608,213.538z"/>
</g>
<rect x="3.167" y="2.667" fill="none" stroke="#4D4D4D" stroke-width="3" stroke-miterlimit="10" width="806" height="321"/>
</svg>
